<svg
  width="24"
  height="24"
  viewBox="0 0 24 24"
  xmlns="http://www.w3.org/2000/svg"
  fill="currentColor"
>
  <path
    d="M5.5 3.25H9C10.24 3.25 11.25 4.26 11.25 5.5V9C11.25 10.24 10.24 11.25 9 11.25H5.5C4.26 11.25 3.25 10.24 3.25 9V5.5C3.25 4.26 4.26 3.25 5.5 3.25ZM5.5 12.75H9C10.24 12.75 11.25 13.76 11.25 15V18.5C11.25 19.74 10.24 20.75 9 20.75H5.5C4.26 20.75 3.25 19.74 3.25 18.5V15C3.25 13.76 4.26 12.75 5.5 12.75ZM15 3.25H18.5C19.74 3.25 20.75 4.26 20.75 5.5V9C20.75 10.24 19.74 11.25 18.5 11.25H15C13.76 11.25 12.75 10.24 12.75 9V5.5C12.75 4.26 13.76 3.25 15 3.25ZM15 12.75H18.5C19.74 12.75 20.75 13.76 20.75 15V18.5C20.75 19.74 19.74 20.75 18.5 20.75H15C13.76 20.75 12.75 19.74 12.75 18.5V15C12.75 13.76 13.76 12.75 15 12.75Z"
  />
</svg>
